<svg xmlns="http://www.w3.org/2000/svg" xmlns:xlink="http://www.w3.org/1999/xlink" version="1.1" id="Capa_1" x="0px" y="0px" width="612px" height="612px" viewBox="0 0 612 612" style="enable-background:new 0 0 612 612;" xml:space="preserve" ><rect id="svgEditorBackground" x="0" y="0" width="612" height="612" style="fill: none; stroke: none;"/>
<g>
	<g id="Delete">
		<g>
			<path d="M387.12799072265625,170.7480010986328l-81.12799072265625,81.1669921875l-81.12799072265625,-81.16700744628906l-54.123992919921875,54.123992919921875l81.16697692871094,81.12802124023438l-81.12800598144531,81.12799072265625l54.084991455078125,54.08599853515625l81.12802124023438,-81.12799072265625l81.12799072265625,81.12799072265625l54.08599853515625,-54.08599853515625l-81.12799072265625,-81.12799072265625l81.12799072265625,-81.12799072265625l-54.08599853515625,-54.12400817871094ZM522.3800048828125,89.62000274658203c-119.49298095703125,-119.49299621582031,-313.2669982910156,-119.49299621582031,-432.760009765625,0c-119.49299621582031,119.49300384521484,-119.49299621582031,313.2669982910156,0,432.760009765625c119.49299621582031,119.49298095703125,313.2669982910156,119.49298095703125,432.760009765625,0c119.49298095703125,-119.49200439453125,119.49298095703125,-313.2669982910156,0,-432.760009765625ZM468.2950134277344,468.2950134277344c-89.6199951171875,89.61898803710938,-234.9320068359375,89.61898803710938,-324.5509948730469,0c-89.62000274658203,-89.6199951171875,-89.62000274658203,-234.9320068359375,0,-324.5509948730469c89.6199951171875,-89.62000274658203,234.93099975585938,-89.62000274658203,324.5509948730469,0c89.61898803710938,89.61898803710938,89.61898803710938,234.89297485351562,0,324.5509948730469Z" fill="white"/>
		</g>
	</g>
</g>
<g>
</g>
<g>
</g>
<g>
</g>
<g>
</g>
<g>
</g>
<g>
</g>
<g>
</g>
<g>
</g>
<g>
</g>
<g>
</g>
<g>
</g>
<g>
</g>
<g>
</g>
<g>
</g>
<g>
</g>
</svg>